{"title":"Fanboys[2009]DvDrip-LW","uid":4928572,"size":839082249,"categoryP":"video","categoryS":"movies","magnet":"?xt=urn:btih:fc99f2664a5944e01bf3b2925caa064eb4751cf3&amp;dn=Fanboys%5B2009%5DDvDrip-LW&amp;tr=udp%3A%2F%2Ftracker.openbittorrent.com%3A80&amp;tr=udp%3A%2F%2Fopen.demonii.com%3A1337&amp;tr=udp%3A%2F%2Ftracker.coppersurfer.tk%3A6969&amp;tr=udp%3A%2F%2Fexodus.desync.com%3A6969","seeders":1,"leechers":0,"uploader":"XoLWoX","files":-1,"time":1243947709,"description":"-------------------------------------------------\nF I L E - I N F O\n-------------------------------------------------\nTITLE......[ Fanboys\nYEAR.......[ 2009\nGENRE......[ Comedy\nRUNTIME....[ 01:29:42\nSTORE DATE.[ 2009 (USA)\nIMDB RATE..[ 7.7/10 (1,377 Votes)\nIMDB URL...[ http://www.imdb.com/title/tt0489049/\n-------------------------------------------------\nFormat                           : AVI\nFormat/Info                      : Audio Video Interleave\nFile size                        : 800 MiB\nDuration                         : 1h 29mn\nOverall bit rate                 : 1 247 Kbps\nWriting application              : VirtualDubMod 1.5.4.1 (build 2178/release)\nWriting library                  : VirtualDubMod build 2178/release\nSOURCE                           : DVD\n-------------------------------------------------\nV I D E O\n-------------------------------------------------\nFormat                           : MPEG-4 Visual\nFormat profile                   : Streaming Video@L1\nFormat settings, BVOP            : Yes\nFormat settings, QPel            : No\nFormat settings, GMC             : No warppoints\nFormat settings, Matrix          : Custom\nCodec ID                         : XVID\nCodec ID/Hint                    : XviD\nDuration                         : 1h 29mn\nBit rate                         : 1 098 Kbps\nWidth                            : 624 pixels\nHeight                           : 352 pixels\nDisplay aspect ratio             : 16/9\nFrame rate                       : 23.976 fps\nResolution                       : 24 bits\nColorimetry                      : 4:2:0\nScan type                        : Progressive\nBits/(Pixel*Frame)               : 0.208\nStream size                      : 704 MiB (88%)\nWriting library                  : XviD 1.2.1\n-------------------------------------------------\nA U D I O\n-------------------------------------------------\nFormat                           : MPEG Audio\nFormat version                   : Version 1\nFormat profile                   : Layer 3\nCodec ID                         : 55\nCodec ID/Hint                    : MP3\nDuration                         : 1h 29mn\nBit rate mode                    : Variable\nBit rate                         : 136 Kbps\nMinimum bit rate                 : 128 Kbps\nChannel(s)                       : 2 channels\nSampling rate                    : 48.0 KHz\nResolution                       : 16 bits\nStream size                      : 87.5 MiB (11%)\nAlignment                        : Aligned on interleaves\nInterleave, duration             : 24 ms (0.58 video frame)\nInterleave, preload duration     : 135 ms\nWriting library                  : LAME3.98r\nEncoding settings                : VBR\n-------------------------------------------------\nP L O T\n-------------------------------------------------\nThey've waited patiently for years for the release \nof Star Wars: Episode I: The Phantom Menace. But when \none of their own discovers he's terminally ill, a \ngroup of pals embarks on a road trip to Skywalker \nRanch to steal the long-anticipated film. Sam Huntington, \nChris Marquette, Dan Fogler, Jay Baruchel and Kristin \nBell star in director Kyle Newman's labor of geek love. \nStar Wars alums Billy Dee Williams, Carrie Fisher and \nRay Park make cameos. \n\nStarring: Sam Huntington, Chris Marquette\n\nDirector: Kyle Newman\n-------------------------------------------------","torrent":{"xt":"urn:btih:fc99f2664a5944e01bf3b2925caa064eb4751cf3","amp;dn":"Fanboys%5B2009%5DDvDrip-LW","amp;tr":["udp%3A%2F%2Ftracker.openbittorrent.com%3A80","udp%3A%2F%2Fopen.demonii.com%3A1337","udp%3A%2F%2Ftracker.coppersurfer.tk%3A6969","udp%3A%2F%2Fexodus.desync.com%3A6969"],"infoHash":"fc99f2664a5944e01bf3b2925caa064eb4751cf3","infoHashBuffer":{"type":"Buffer","data":[252,153,242,102,74,89,68,224,27,243,178,146,92,170,6,78,180,117,28,243]},"announce":[],"urlList":[]}}